<?xml version="1.0" encoding="UTF-8" standalone="no"?><svg xmlns="http://www.w3.org/2000/svg" xmlns:xlink="http://www.w3.org/1999/xlink" contentScriptType="application/ecmascript" contentStyleType="text/css" height="132px" preserveAspectRatio="none" style="width:645px;height:132px;" version="1.1" viewBox="0 0 645 132" width="645px" zoomAndPan="magnify"><defs/><g><ellipse cx="246.4706" cy="43.8774" fill="#F8F8F8" rx="19.9706" ry="12.8774" style="stroke: #383838; stroke-width: 0.5;"/><text fill="#000000" font-family="Tahoma, sans-serif" font-size="12" lengthAdjust="spacingAndGlyphs" textLength="24" x="234.4706" y="47.3618">App</text><ellipse cx="51.4264" cy="103.3774" fill="#F8F8F8" rx="45.4264" ry="12.8774" style="stroke: #383838; stroke-width: 0.5;"/><text fill="#000000" font-family="Tahoma, sans-serif" font-size="12" lengthAdjust="spacingAndGlyphs" textLength="60" x="21.4264" y="106.8618">Copyright</text><ellipse cx="186.4077" cy="103.5815" fill="#F8F8F8" rx="75.9077" ry="17.5815" style="stroke: #383838; stroke-width: 0.5;"/><text fill="#000000" font-family="Tahoma, sans-serif" font-size="12" lengthAdjust="spacingAndGlyphs" textLength="128" x="122.4077" y="107.0659">FileSystemNavigator</text><ellipse cx="111.5416" cy="43.8774" fill="#F8F8F8" rx="27.0416" ry="12.8774" style="stroke: #383838; stroke-width: 0.5;"/><text fill="#000000" font-family="Tahoma, sans-serif" font-size="12" font-weight="bold" lengthAdjust="spacingAndGlyphs" textLength="34" x="94.5416" y="47.3618">main</text><!--MD5=[b68d6101ff324df402cf69762661a7ee]
entity _Node--><rect fill="#F8F8F8" height="33.9688" rx="3" ry="3" style="stroke: #000000; stroke-width: 0.5;" width="57" x="457" y="27"/><text fill="#000000" font-family="Tahoma, sans-serif" font-size="12" font-weight="bold" lengthAdjust="spacingAndGlyphs" textLength="37" x="467" y="48.1387">Node</text><ellipse cx="306.5772" cy="103.3774" fill="#F8F8F8" rx="30.5772" ry="12.8774" style="stroke: #383838; stroke-width: 0.5;"/><text fill="#000000" font-family="Tahoma, sans-serif" font-size="12" lengthAdjust="spacingAndGlyphs" textLength="39" x="287.0772" y="106.8618">ProTip</text><ellipse cx="383.4056" cy="103.3774" fill="#F8F8F8" rx="33.4056" ry="12.8774" style="stroke: #383838; stroke-width: 0.5;"/><text fill="#000000" font-family="Tahoma, sans-serif" font-size="12" lengthAdjust="spacingAndGlyphs" textLength="43" x="361.9056" y="106.8618">Search</text><ellipse cx="182.5772" cy="43.8774" fill="#F8F8F8" rx="30.5772" ry="12.8774" style="stroke: #383838; stroke-width: 0.5;"/><text fill="#000000" font-family="Tahoma, sans-serif" font-size="12" lengthAdjust="spacingAndGlyphs" textLength="39" x="163.0772" y="47.3618">theme</text><ellipse cx="580.5152" cy="44.103" fill="#F8F8F8" rx="53.5152" ry="13.103" style="stroke: #383838; stroke-width: 0.5;"/><text fill="#000000" font-family="Tahoma, sans-serif" font-size="12" font-weight="bold" lengthAdjust="spacingAndGlyphs" textLength="73" x="544.0152" y="47.5874">vite-env.d</text><ellipse cx="485.3501" cy="103.47" fill="#F8F8F8" rx="55.3501" ry="13.47" style="stroke: #383838; stroke-width: 0.5;"/><text fill="#000000" font-family="Tahoma, sans-serif" font-size="12" font-weight="bold" lengthAdjust="spacingAndGlyphs" textLength="78" x="446.3501" y="106.9544">vite.config</text><!--MD5=[d08f2e56dad7d034650d223d6087f547]
link App to Copyright--><path d="M233.476,53.8668 C229.175,56.4769 224.268,59.1306 219.5,61 C170.399,80.2489 154.47,72.4538 103.5,86 C97.2269,87.6672 90.586,89.6242 84.2236,91.5964 " fill="none" id="App-&gt;Copyright" style="stroke: #000000; stroke-width: 0.5;"/><polygon fill="#000000" points="79.4233,93.103,89.2081,94.2241,84.1938,91.6056,86.8123,86.5913,79.4233,93.103" style="stroke: #000000; stroke-width: 0.5;"/><!--MD5=[2401962c13fe1804b98d8496b37c57ef]
link App to FileSystemNavigator--><path d="M235.773,55.2798 C227.917,62.8084 217.004,73.2673 207.444,82.4288 " fill="none" id="App-&gt;FileSystemNavigator" style="stroke: #000000; stroke-width: 0.5;"/><polygon fill="#000000" points="203.719,85.9987,212.9843,82.6589,207.3287,82.539,207.4487,76.8834,203.719,85.9987" style="stroke: #000000; stroke-width: 0.5;"/><!--MD5=[a9ba1fec563a60238370cf43b5a9ff98]
link App to ProTip--><path d="M257.227,55.2798 C266.593,64.256 280.306,77.3977 290.889,87.5395 " fill="none" id="App-&gt;ProTip" style="stroke: #000000; stroke-width: 0.5;"/><polygon fill="#000000" points="294.632,91.127,290.9004,82.0124,291.0216,87.668,285.366,87.7892,294.632,91.127" style="stroke: #000000; stroke-width: 0.5;"/><!--MD5=[b7a9d0f366fb650b015f05f8ce69d83e]
link App to Search--><path d="M262.754,51.8218 C286.071,61.6081 329.272,79.74 357.18,91.4532 " fill="none" id="App-&gt;Search" style="stroke: #000000; stroke-width: 0.5;"/><polygon fill="#000000" points="361.863,93.4187,355.1132,86.2465,357.2529,91.4831,352.0163,93.6227,361.863,93.4187" style="stroke: #000000; stroke-width: 0.5;"/><!--MD5=[98b2976d578f59c2ce5141901855aab1]
link <b>main</b> to App--><path d="M123.461,32.14 C130.971,25.5536 141.247,18.001 152,14.5 C177.779,6.107 187.636,4.924 213,14.5 C220.658,17.391 227.699,22.9185 233.33,28.4145 " fill="none" id="&lt;b&gt;main&lt;/b&gt;-&gt;App" style="stroke: #000000; stroke-width: 1.0;"/><polygon fill="#000000" points="236.992,32.1817,233.5853,22.9408,233.5062,28.5971,227.8499,28.518,236.992,32.1817" style="stroke: #000000; stroke-width: 1.0;"/><!--MD5=[979d058bc1d9a631875d974ec1b2f6e6]
link <b>main</b> to theme--><path d="M138.68,44 C141.254,44 143.829,44 146.404,44 " fill="none" id="&lt;b&gt;main&lt;/b&gt;-&gt;theme" style="stroke: #000000; stroke-width: 1.0;"/><polygon fill="#000000" points="151.689,44,142.689,40,146.689,44,142.689,48,151.689,44" style="stroke: #000000; stroke-width: 1.0;"/><!--MD5=[cd887445fa3c396a632a4228dccad56d]
link _Node to <b>vite-env.d</b>--><!--MD5=[c6172a2da108df14810aa24021ff113d]
link _Node to <b>vite.config</b>--><script type="text/plantuml"><![CDATA[MD5=[f8609ac1215537a9e7ee0f9be06cc1e0]
@startuml

scale max 1920 width
top to bottom direction

skinparam nodesep 13
skinparam ranksep 25
skinparam monochrome true
skinparam shadowing false
skinparam defaultFontName Tahoma
skinparam defaultFontSize 12
skinparam roundCorner 6
skinparam dpi 150
skinparam arrowColor black
skinparam arrowThickness 0.5
skinparam packageTitleAlignment left

skinparam usecase {
  borderThickness 0.5
}

skinparam rectangle {
  borderThickness 0.5
}

skinparam component {
  borderThickness 1
}


(App)
(Copyright)
(FileSystemNavigator)
(<b>main</b>)
rectangle "<b>Node</b>" as _Node
(ProTip)
(Search)
(theme)
(<b>vite-env.d</b>)
(<b>vite.config</b>)


(App) --> (Copyright)
(App) --> (FileSystemNavigator)
(App) --> (ProTip)
(App) --> (Search)
(<b>main</b>) -[thickness=1]> (App)
(<b>main</b>) -[thickness=1]> (theme)

@enduml


' View and edit on https://arkit.pro
]]></script></g></svg>